<svg xmlns="http://www.w3.org/2000/svg" xmlns:xlink="http://www.w3.org/1999/xlink" width="500" zoomAndPan="magnify" viewBox="0 0 375 374.999991" height="500" preserveAspectRatio="xMidYMid meet" version="1.0"><defs><g/><clipPath id="5d03de492f"><path d="M 102 83 L 257.824219 83 L 257.824219 246 L 102 246 Z M 102 83 " clip-rule="nonzero"/></clipPath><clipPath id="dbf4f6b396"><path d="M 153.167969 182.5625 L 205.300781 182.5625 L 205.300781 226.648438 L 153.167969 226.648438 Z M 153.167969 182.5625 " clip-rule="nonzero"/></clipPath><clipPath id="24914907ce"><path d="M 179.066406 182.5625 L 205.300781 182.5625 L 205.300781 226.648438 L 179.066406 226.648438 Z M 179.066406 182.5625 " clip-rule="nonzero"/></clipPath><clipPath id="e1f71e7828"><path d="M 66.921875 219.980469 L 75.542969 219.980469 L 75.542969 228.597656 L 66.921875 228.597656 Z M 66.921875 219.980469 " clip-rule="nonzero"/></clipPath><clipPath id="839e3cd7a6"><path d="M 71.234375 219.980469 C 68.851562 219.980469 66.921875 221.910156 66.921875 224.289062 C 66.921875 226.667969 68.851562 228.597656 71.234375 228.597656 C 73.613281 228.597656 75.542969 226.667969 75.542969 224.289062 C 75.542969 221.910156 73.613281 219.980469 71.234375 219.980469 Z M 71.234375 219.980469 " clip-rule="nonzero"/></clipPath><clipPath id="bfd6e718a1"><path d="M 280.40625 123.722656 L 289.027344 123.722656 L 289.027344 132.339844 L 280.40625 132.339844 Z M 280.40625 123.722656 " clip-rule="nonzero"/></clipPath><clipPath id="d1b39a7bc4"><path d="M 284.71875 123.722656 C 282.335938 123.722656 280.40625 125.652344 280.40625 128.03125 C 280.40625 130.410156 282.335938 132.339844 284.71875 132.339844 C 287.097656 132.339844 289.027344 130.410156 289.027344 128.03125 C 289.027344 125.652344 287.097656 123.722656 284.71875 123.722656 Z M 284.71875 123.722656 " clip-rule="nonzero"/></clipPath></defs><g fill="#000000" fill-opacity="1"><g transform="translate(84.253119, 121.0933)"><g><path d="M -12.109375 -11.921875 L -11.09375 -13.359375 L 1.34375 -4.5625 L 6.78125 -12.234375 L 8.03125 -11.34375 L 1.578125 -2.234375 Z M -12.109375 -11.921875 "/></g></g></g><g fill="#000000" fill-opacity="1"><g transform="translate(92.354228, 109.535822)"><g><path d="M 8.8125 -11.734375 L 9.9375 -10.6875 L 1.859375 -2 L -10.421875 -13.421875 L -2.59375 -21.84375 L -1.46875 -20.796875 L -8.09375 -13.671875 L -3.71875 -9.609375 L 2.1875 -15.953125 L 3.28125 -14.921875 L -2.625 -8.578125 L 1.9375 -4.34375 Z M 8.8125 -11.734375 "/></g></g></g><g fill="#000000" fill-opacity="1"><g transform="translate(103.325572, 97.848178)"><g><path d="M -5.078125 -15.5625 L -9.609375 -11.8125 L -10.59375 -13 L -0.140625 -21.625 L 0.84375 -20.4375 L -3.703125 -16.6875 L 5.984375 -4.9375 L 4.609375 -3.8125 Z M -5.078125 -15.5625 "/></g></g></g><g fill="#000000" fill-opacity="1"><g transform="translate(113.948507, 89.047626)"><g><path d="M 6.296875 -3.8125 C 5.242188 -3.132812 4.128906 -2.660156 2.953125 -2.390625 C 1.773438 -2.117188 0.75 -2.09375 -0.125 -2.3125 L -0.265625 -3.84375 C 0.566406 -3.644531 1.507812 -3.660156 2.5625 -3.890625 C 3.613281 -4.117188 4.59375 -4.519531 5.5 -5.09375 C 6.769531 -5.882812 7.570312 -6.710938 7.90625 -7.578125 C 8.25 -8.441406 8.1875 -9.242188 7.71875 -9.984375 C 7.351562 -10.554688 6.890625 -10.90625 6.328125 -11.03125 C 5.773438 -11.15625 5.1875 -11.148438 4.5625 -11.015625 C 3.945312 -10.878906 3.132812 -10.632812 2.125 -10.28125 C 0.882812 -9.875 -0.128906 -9.597656 -0.921875 -9.453125 C -1.710938 -9.304688 -2.492188 -9.34375 -3.265625 -9.5625 C -4.046875 -9.789062 -4.71875 -10.34375 -5.28125 -11.21875 C -5.726562 -11.9375 -5.945312 -12.707031 -5.9375 -13.53125 C -5.9375 -14.363281 -5.65625 -15.203125 -5.09375 -16.046875 C -4.53125 -16.890625 -3.664062 -17.679688 -2.5 -18.421875 C -1.695312 -18.929688 -0.835938 -19.320312 0.078125 -19.59375 C 0.992188 -19.863281 1.859375 -19.972656 2.671875 -19.921875 L 2.921875 -18.421875 C 2.085938 -18.441406 1.265625 -18.335938 0.453125 -18.109375 C -0.347656 -17.878906 -1.066406 -17.5625 -1.703125 -17.15625 C -2.953125 -16.375 -3.734375 -15.539062 -4.046875 -14.65625 C -4.367188 -13.769531 -4.289062 -12.953125 -3.8125 -12.203125 C -3.457031 -11.640625 -3 -11.289062 -2.4375 -11.15625 C -1.882812 -11.03125 -1.289062 -11.039062 -0.65625 -11.1875 C -0.0195312 -11.332031 0.804688 -11.578125 1.828125 -11.921875 C 3.035156 -12.316406 4.035156 -12.59375 4.828125 -12.75 C 5.628906 -12.90625 6.410156 -12.867188 7.171875 -12.640625 C 7.929688 -12.421875 8.582031 -11.878906 9.125 -11.015625 C 9.582031 -10.296875 9.800781 -9.519531 9.78125 -8.6875 C 9.769531 -7.851562 9.472656 -7.007812 8.890625 -6.15625 C 8.316406 -5.3125 7.453125 -4.53125 6.296875 -3.8125 Z M 6.296875 -3.8125 "/></g></g></g><g fill="#000000" fill-opacity="1"><g transform="translate(126.709998, 81.237016)"><g/></g></g><g fill="#000000" fill-opacity="1"><g transform="translate(132.350014, 78.067587)"><g><path d="M 13.265625 -5.03125 L 7.765625 -8.71875 C 7.390625 -8.507812 6.984375 -8.320312 6.546875 -8.15625 L 2.328125 -6.5625 L 4.203125 -1.59375 L 2.5625 -0.96875 L -3.375 -16.640625 L 2.484375 -18.859375 C 4.484375 -19.617188 6.226562 -19.738281 7.71875 -19.21875 C 9.21875 -18.695312 10.285156 -17.597656 10.921875 -15.921875 C 11.390625 -14.691406 11.472656 -13.539062 11.171875 -12.46875 C 10.867188 -11.394531 10.21875 -10.453125 9.21875 -9.640625 L 15.078125 -5.71875 Z M 5.953125 -9.5625 C 7.503906 -10.15625 8.5625 -10.945312 9.125 -11.9375 C 9.6875 -12.925781 9.734375 -14.039062 9.265625 -15.28125 C 8.785156 -16.550781 8.003906 -17.375 6.921875 -17.75 C 5.835938 -18.125 4.519531 -18.015625 2.96875 -17.421875 L -1.203125 -15.84375 L 1.78125 -7.984375 Z M 5.953125 -9.5625 "/></g></g></g><g fill="#000000" fill-opacity="1"><g transform="translate(148.338839, 71.870285)"><g><path d="M 9.890625 -1.84375 C 8.265625 -1.507812 6.71875 -1.570312 5.25 -2.03125 C 3.78125 -2.488281 2.546875 -3.28125 1.546875 -4.40625 C 0.546875 -5.539062 -0.113281 -6.894531 -0.4375 -8.46875 C -0.75 -10.039062 -0.660156 -11.535156 -0.171875 -12.953125 C 0.316406 -14.378906 1.148438 -15.585938 2.328125 -16.578125 C 3.503906 -17.566406 4.90625 -18.226562 6.53125 -18.5625 C 8.15625 -18.882812 9.691406 -18.816406 11.140625 -18.359375 C 12.597656 -17.910156 13.828125 -17.117188 14.828125 -15.984375 C 15.835938 -14.859375 16.5 -13.507812 16.8125 -11.9375 C 17.132812 -10.363281 17.046875 -8.859375 16.546875 -7.421875 C 16.054688 -5.992188 15.226562 -4.785156 14.0625 -3.796875 C 12.90625 -2.816406 11.515625 -2.164062 9.890625 -1.84375 Z M 9.578125 -3.390625 C 10.878906 -3.648438 11.992188 -4.179688 12.921875 -4.984375 C 13.859375 -5.785156 14.519531 -6.765625 14.90625 -7.921875 C 15.289062 -9.078125 15.351562 -10.296875 15.09375 -11.578125 C 14.84375 -12.859375 14.3125 -13.960938 13.5 -14.890625 C 12.695312 -15.816406 11.710938 -16.46875 10.546875 -16.84375 C 9.378906 -17.21875 8.144531 -17.273438 6.84375 -17.015625 C 5.550781 -16.753906 4.429688 -16.222656 3.484375 -15.421875 C 2.546875 -14.617188 1.878906 -13.632812 1.484375 -12.46875 C 1.097656 -11.3125 1.03125 -10.09375 1.28125 -8.8125 C 1.539062 -7.53125 2.078125 -6.425781 2.890625 -5.5 C 3.703125 -4.582031 4.695312 -3.9375 5.875 -3.5625 C 7.050781 -3.1875 8.285156 -3.128906 9.578125 -3.390625 Z M 9.578125 -3.390625 "/></g></g></g><g fill="#000000" fill-opacity="1"><g transform="translate(167.877524, 68.047508)"><g><path d="M 10.015625 -0.203125 C 8.347656 -0.148438 6.832031 -0.46875 5.46875 -1.15625 C 4.113281 -1.84375 3.035156 -2.820312 2.234375 -4.09375 C 1.441406 -5.375 1.015625 -6.820312 0.953125 -8.4375 C 0.898438 -10.039062 1.226562 -11.503906 1.9375 -12.828125 C 2.644531 -14.148438 3.65625 -15.203125 4.96875 -15.984375 C 6.289062 -16.765625 7.78125 -17.179688 9.4375 -17.234375 C 10.6875 -17.285156 11.84375 -17.125 12.90625 -16.75 C 13.96875 -16.375 14.882812 -15.796875 15.65625 -15.015625 L 14.5625 -13.859375 C 13.207031 -15.128906 11.535156 -15.734375 9.546875 -15.671875 C 8.222656 -15.617188 7.03125 -15.269531 5.96875 -14.625 C 4.90625 -13.988281 4.082031 -13.132812 3.5 -12.0625 C 2.925781 -10.988281 2.660156 -9.800781 2.703125 -8.5 C 2.753906 -7.1875 3.101562 -6.007812 3.75 -4.96875 C 4.40625 -3.9375 5.285156 -3.132812 6.390625 -2.5625 C 7.492188 -2 8.707031 -1.742188 10.03125 -1.796875 C 12.039062 -1.859375 13.664062 -2.585938 14.90625 -3.984375 L 16.078125 -2.890625 C 15.359375 -2.066406 14.476562 -1.425781 13.4375 -0.96875 C 12.394531 -0.507812 11.253906 -0.253906 10.015625 -0.203125 Z M 10.015625 -0.203125 "/></g></g></g><g fill="#000000" fill-opacity="1"><g transform="translate(184.986029, 67.446921)"><g><path d="M 8.78125 -6.921875 L 4.984375 -3.859375 L 4.46875 0.515625 L 2.71875 0.3125 L 4.65625 -16.34375 L 6.40625 -16.140625 L 5.234375 -6.078125 L 16.1875 -15 L 18.21875 -14.765625 L 10.125 -8.0625 L 16.78125 1.953125 L 14.6875 1.703125 Z M 8.78125 -6.921875 "/></g></g></g><g fill="#000000" fill-opacity="1"><g transform="translate(202.032568, 69.719804)"><g><path d="M 5.71875 -15.90625 L 7.6875 -15.453125 L 4.765625 -4.078125 L 3.46875 -4.375 Z M 3 0.796875 C 2.664062 0.722656 2.40625 0.535156 2.21875 0.234375 C 2.03125 -0.0546875 1.972656 -0.363281 2.046875 -0.6875 C 2.117188 -1.03125 2.296875 -1.285156 2.578125 -1.453125 C 2.867188 -1.628906 3.191406 -1.679688 3.546875 -1.609375 C 3.890625 -1.523438 4.148438 -1.34375 4.328125 -1.0625 C 4.515625 -0.789062 4.570312 -0.484375 4.5 -0.140625 C 4.425781 0.179688 4.242188 0.4375 3.953125 0.625 C 3.660156 0.820312 3.34375 0.878906 3 0.796875 Z M 3 0.796875 "/></g></g></g><g fill="#000000" fill-opacity="1"><g transform="translate(108.949509, 281.235077)"><g><path d="M 24.585938 12.050781 C 25.886719 12.378906 26.5625 10.914062 26.917969 9.882812 C 27.519531 7.8125 27.949219 5.707031 28.171875 3.539062 C 28.710938 -0.863281 28.296875 -5.332031 27.03125 -9.617188 C 26.917969 -10.058594 26.265625 -10.007812 26.121094 -9.65625 C 26 -9.976562 25.925781 -10.269531 25.800781 -10.589844 L 27.382812 -10.53125 C 31.3125 -10.453125 35.445312 -10.507812 38.851562 -12.601562 C 39.453125 -12.992188 39.105469 -13.878906 38.425781 -13.78125 L 38.207031 -13.726562 C 38.640625 -14.464844 38.679688 -15.371094 38.050781 -15.992188 C 37.292969 -16.8125 35.789062 -16.578125 34.804688 -16.597656 C 29.984375 -16.640625 24.160156 -17.085938 19.351562 -17.679688 C 20.265625 -19.441406 21.195312 -21.128906 22.15625 -22.863281 L 22.347656 -23.1875 C 22.347656 -23.1875 22.328125 -23.261719 22.300781 -23.214844 C 20.835938 -21.464844 19.464844 -19.664062 18.113281 -17.789062 C 17.945312 -17.824219 17.800781 -17.785156 17.582031 -17.730469 L 20.164062 -21.800781 C 20.832031 -22.835938 21.441406 -23.96875 22.257812 -24.726562 C 24.601562 -26.703125 21.714844 -30.453125 19.140625 -28.925781 C 18.9375 -28.796875 18.765625 -28.710938 18.609375 -28.554688 C 17.503906 -28.894531 16.761719 -27.839844 16.320312 -26.984375 C 15.828125 -26.152344 15.386719 -25.296875 14.898438 -24.464844 C 13.164062 -21.199219 11.453125 -17.980469 9.839844 -14.707031 C 8.222656 -11.433594 6.746094 -8.082031 5.265625 -4.726562 C 4.589844 -3.261719 3.777344 -1.878906 3.570312 -0.257812 C 3.433594 1.027344 4.160156 2.324219 5.304688 2.8125 C 6.324219 4.03125 7.871094 4.570312 9.519531 4.300781 C 10.007812 4.214844 10.324219 3.777344 10.449219 3.355469 C 10.890625 2.1875 11.070312 0.925781 11.355469 -0.0859375 C 11.769531 -1.210938 12.136719 -2.359375 12.59375 -3.457031 C 13.792969 -6.230469 15.039062 -8.976562 16.300781 -11.648438 C 16.703125 -11.597656 17.15625 -11.519531 17.679688 -11.460938 L 18.582031 -11.300781 C 19.347656 -9.546875 19.722656 -7.648438 20.09375 -5.75 C 21.003906 -1.488281 21.601562 3.085938 21.273438 7.550781 C 21 8.015625 20.847656 8.484375 20.835938 9.035156 C 20.742188 10.035156 21.273438 11.03125 22.148438 11.546875 C 23.582031 12.390625 25.164062 11.707031 25.757812 10.378906 C 27.101562 7.566406 27.316406 -3.242188 26.839844 -6.441406 C 27.777344 -1.914062 27.878906 2.558594 27.0625 7.109375 C 26.839844 8.222656 26.480469 12.109375 24.648438 11.839844 C 24.53125 11.832031 24.46875 12.042969 24.585938 12.050781 Z M 24.585938 12.050781 "/></g></g></g><g fill="#000000" fill-opacity="1"><g transform="translate(143.272997, 299.115653)"><g><path d="M 19.476562 2.679688 C 19.84375 6.707031 23.734375 7.460938 24.203125 2.632812 C 24.480469 -0.597656 24.53125 -5.027344 24.535156 -8.261719 C 27.816406 -9.453125 28.285156 -14.285156 24.417969 -15.636719 C 24.75 -18.851562 26.1875 -26.8125 26.019531 -26.304688 C 25.429688 -24.625 24.917969 -22.820312 24.46875 -21.054688 C 24.417969 -21.066406 24.417969 -21.066406 24.378906 -21.128906 C 24.621094 -23.214844 24.886719 -25.402344 25.195312 -27.527344 C 25.410156 -29.234375 24.542969 -30.523438 23.050781 -30.964844 C 22.820312 -31.894531 21.914062 -32.753906 21.011719 -32.898438 C 18.335938 -33.4375 16.570312 -30.429688 15.179688 -28.601562 C 13.101562 -25.660156 11.511719 -22.449219 10.011719 -19.164062 C 3.585938 -19.605469 2.320312 -13.90625 5.480469 -12.328125 C 5.496094 -12.160156 5.398438 -11.960938 5.320312 -11.871094 C 5.742188 -11.777344 6.273438 -11.714844 6.757812 -11.660156 C 5.300781 -8.804688 4.105469 -5.890625 3 -2.898438 C 1.230469 1.863281 7.550781 4.035156 9.023438 -0.628906 L 9.859375 -2.910156 C 9.859375 -2.910156 11.929688 -8.042969 13.179688 -10.453125 L 13.648438 -10.351562 C 11.972656 -7.488281 10.792969 -4.402344 9.835938 -1.324219 C 9.644531 -0.710938 10.53125 -0.511719 10.671875 -1.140625 C 11.640625 -4.269531 12.902344 -7.226562 14.378906 -10.1875 L 18.46875 -9.335938 C 18.46875 -7.359375 18.5625 2.09375 19.476562 2.679688 Z M 15.730469 -17.015625 C 16.746094 -19.367188 17.839844 -21.320312 19.324219 -24.0625 C 19.3125 -21.539062 18.785156 -17.929688 18.707031 -16.574219 C 17.960938 -16.6875 16.488281 -16.957031 15.730469 -17.015625 Z M 15.730469 -17.015625 "/></g></g></g><g fill="#000000" fill-opacity="1"><g transform="translate(180.087681, 305.669924)"><g><path d="M 30.082031 -8.34375 C 30.9375 -11.246094 29.417969 -14.140625 27.855469 -16.496094 C 26.613281 -18.402344 25.125 -20.117188 23.59375 -21.71875 C 22.675781 -22.691406 21.65625 -23.601562 20.640625 -24.453125 C 17.753906 -27.085938 14.679688 -29.484375 11.609375 -31.824219 C 8.835938 -33.933594 6.011719 -35.980469 2.417969 -35.839844 C 1.183594 -35.804688 -1.214844 -35.101562 -1.535156 -33.664062 C -1.746094 -33.640625 -2.007812 -33.554688 -2.265625 -33.472656 C -3.207031 -33.203125 -3.898438 -32.207031 -3.460938 -31.179688 C -3.386719 -31.027344 -3.257812 -30.824219 -3.179688 -30.617188 C -1.28125 -24.855469 0.617188 -19.089844 2.46875 -13.269531 C 2.703125 -12.648438 2.875 -12.074219 3.054688 -11.449219 L 2.824219 -11.585938 C 1.238281 -12.265625 -0.722656 -11.503906 -1.402344 -9.914062 C -2.136719 -8.324219 -1.421875 -6.304688 0.21875 -5.628906 C 1.964844 -4.964844 3.699219 -4.410156 5.480469 -3.914062 C 5.890625 -2.667969 6.359375 -1.859375 7.621094 -1.195312 C 8.195312 -0.882812 8.953125 -0.863281 9.640625 -0.996094 C 10.011719 -1.039062 10.257812 -1.226562 10.449219 -1.464844 C 10.671875 -1.382812 10.945312 -1.359375 11.203125 -1.445312 C 11.617188 -1.597656 11.945312 -2.011719 12.105469 -2.515625 C 13.417969 -2.34375 14.777344 -2.230469 16.132812 -2.167969 C 19 -2.066406 21.777344 -2.277344 24.46875 -3.230469 C 26.796875 -4.089844 29.339844 -5.890625 30.082031 -8.34375 Z M -1.085938 -26.925781 C -0.132812 -24.71875 3.238281 -15.511719 4.214844 -13.089844 C 4.53125 -12.210938 4.953125 -11.34375 5.375 -10.476562 C 5.039062 -10.597656 4.695312 -10.773438 4.355469 -10.898438 L 2.269531 -16.425781 C 0.894531 -19.984375 -0.273438 -23.570312 -1.597656 -27.136719 C -1.839844 -27.863281 -1.164062 -27.132812 -1.085938 -26.925781 Z M 23.320312 -13.28125 C 23.757812 -12.742188 24.15625 -12.085938 24.550781 -11.484375 C 24.941406 -10.882812 25.328125 -10.332031 25.515625 -9.65625 C 24.988281 -9.054688 24.273438 -8.703125 23.394531 -8.386719 C 22.316406 -7.941406 21.515625 -7.851562 20.242188 -7.703125 C 18.851562 -7.597656 18.148438 -7.625 16.730469 -7.789062 C 14.929688 -7.957031 13.167969 -8.296875 11.453125 -8.691406 C 11.003906 -10.257812 10.503906 -11.816406 10.054688 -13.382812 C 8.804688 -17.710938 7.496094 -22.085938 6.085938 -26.398438 L 7.15625 -25.980469 C 9.820312 -24.832031 12.125 -23.535156 14.359375 -21.902344 C 16.582031 -20.378906 18.621094 -18.566406 20.460938 -16.621094 C 21.445312 -15.546875 22.382812 -14.414062 23.320312 -13.28125 Z M 23.320312 -13.28125 "/></g></g></g><g fill="#000000" fill-opacity="1"><g transform="translate(222.40267, 298.306412)"><g><path d="M 16.980469 -9.90625 C 19.753906 -6.960938 23.28125 -8.765625 20.671875 -12.859375 C 18.898438 -15.570312 16.207031 -19.089844 14.214844 -21.636719 C 16.0625 -24.601562 13.453125 -28.691406 9.574219 -27.371094 C 7.851562 -30.105469 4.070312 -37.257812 4.253906 -36.753906 C 4.824219 -35.066406 5.535156 -33.332031 6.273438 -31.664062 C 6.222656 -31.644531 6.222656 -31.644531 6.152344 -31.667969 C 5.058594 -33.457031 3.917969 -35.347656 2.847656 -37.207031 C 1.964844 -38.683594 0.488281 -39.164062 -0.957031 -38.589844 C -1.714844 -39.179688 -2.957031 -39.296875 -3.753906 -38.855469 C -6.195312 -37.628906 -5.726562 -34.171875 -5.695312 -31.875 C -5.519531 -28.277344 -4.789062 -24.769531 -3.941406 -21.257812 C -9.273438 -17.640625 -6.753906 -12.378906 -3.292969 -13.082031 C -3.175781 -12.960938 -3.132812 -12.746094 -3.132812 -12.625 C -2.746094 -12.808594 -2.285156 -13.089844 -1.875 -13.347656 C -1.257812 -10.199219 -0.402344 -7.167969 0.574219 -4.132812 C 2.117188 0.707031 8.429688 -1.480469 6.714844 -6.0625 L 5.964844 -8.371094 C 5.964844 -8.371094 4.429688 -13.691406 3.921875 -16.359375 L 4.359375 -16.566406 C 4.804688 -13.277344 5.777344 -10.125 6.921875 -7.109375 C 7.152344 -6.507812 7.972656 -6.902344 7.695312 -7.480469 C 6.527344 -10.542969 5.695312 -13.644531 5.035156 -16.890625 L 8.777344 -18.738281 C 9.996094 -17.1875 15.902344 -9.804688 16.980469 -9.90625 Z M 1.886719 -23.097656 C 1.234375 -25.574219 0.890625 -27.785156 0.367188 -30.859375 C 1.914062 -28.867188 3.726562 -25.699219 4.496094 -24.585938 C 3.84375 -24.214844 2.515625 -23.519531 1.886719 -23.097656 Z M 1.886719 -23.097656 "/></g></g></g><g fill="#000000" fill-opacity="1"><g transform="translate(255.244174, 280.748398)"><g><path d="M 19.777344 -22.902344 C 19.113281 -24.121094 17.792969 -24.332031 16.46875 -24.316406 C 13.480469 -24.625 10.375 -24.597656 7.34375 -24.265625 C 5.863281 -24.101562 4.457031 -23.859375 2.976562 -23.539062 C 2.671875 -23.46875 2.371094 -23.398438 2.027344 -23.289062 L 3.984375 -24.960938 C 5.09375 -25.816406 5.976562 -26.445312 6.933594 -27.226562 C 7.660156 -27.78125 7.902344 -28.6875 7.992188 -29.59375 C 9.003906 -36.316406 -8.617188 -32.65625 -11.699219 -31.753906 C -13.332031 -31.289062 -14.96875 -30.671875 -16.496094 -29.9375 C -17.945312 -29.277344 -19.324219 -28.316406 -20.476562 -27.199219 C -21.628906 -26.003906 -22.714844 -24.507812 -22.511719 -22.761719 C -22.277344 -20.902344 -20.011719 -20.640625 -18.535156 -20.65625 C -18.003906 -20.722656 -17.433594 -20.753906 -16.863281 -20.933594 C -14.808594 -19.195312 -12.792969 -17.425781 -10.773438 -15.652344 C -10.773438 -15.652344 -10.699219 -15.648438 -10.660156 -15.613281 C -11.015625 -14.671875 -10.917969 -13.648438 -10.171875 -12.878906 C -9.242188 -11.917969 -8.066406 -11.9375 -7.039062 -12.488281 C -4.609375 -10.367188 -2.179688 -8.25 0.132812 -6.015625 C 0.128906 -5.941406 0.0898438 -5.90625 0.0546875 -5.867188 C -0.714844 -5.046875 -0.8125 -3.835938 0.0078125 -2.992188 C 0.269531 -2.722656 0.605469 -2.527344 0.984375 -2.445312 C 1.058594 -2.367188 1.097656 -2.332031 1.210938 -2.289062 C 2.109375 -1.746094 3.097656 -2.109375 3.71875 -2.933594 C 4.066406 -3.496094 4.492188 -4.058594 4.917969 -4.617188 C 5.070312 -4.691406 5.222656 -4.839844 5.378906 -4.988281 C 5.761719 -5.363281 6.035156 -5.773438 6.15625 -6.265625 C 8.046875 -8.621094 10.050781 -10.859375 12.390625 -12.90625 C 14.003906 -14.394531 15.839844 -15.65625 17.417969 -17.257812 C 18.800781 -18.675781 20.84375 -20.800781 19.777344 -22.902344 Z M -0.929688 -27.878906 C -2.042969 -26.875 -3.121094 -25.832031 -4.199219 -24.710938 C -5.390625 -23.480469 -6.546875 -22.136719 -7.628906 -20.714844 C -9.460938 -22.21875 -11.292969 -23.648438 -13.242188 -24.964844 C -13.203125 -25.003906 -13.164062 -25.039062 -13.125 -25.078125 L -12.398438 -25.558594 C -11.980469 -25.816406 -11.523438 -26.035156 -11.0625 -26.257812 C -9.691406 -26.917969 -7.828125 -27.378906 -6.042969 -27.691406 C -5.398438 -27.796875 -4.679688 -27.824219 -3.769531 -27.882812 C -2.824219 -27.90625 -1.875 -27.929688 -0.929688 -27.878906 Z M 10.945312 -19.78125 C 11.894531 -19.878906 12.878906 -19.867188 13.824219 -19.8125 C 13.019531 -19.332031 12.253906 -18.816406 11.488281 -18.222656 C 9.726562 -16.960938 8.117188 -15.546875 6.617188 -14.019531 C 5.808594 -13.160156 4.996094 -12.226562 4.226562 -11.253906 C 3.402344 -11.949219 2.542969 -12.605469 1.71875 -13.300781 L -2.058594 -16.273438 C -1.941406 -16.386719 -1.789062 -16.457031 -1.675781 -16.496094 C 0.234375 -17.523438 2.402344 -18.210938 4.457031 -18.785156 C 6.585938 -19.355469 8.746094 -19.664062 10.945312 -19.78125 Z M 10.945312 -19.78125 "/></g></g></g><g fill="#000000" fill-opacity="1"><g transform="translate(283.605772, 250.463038)"><g><path d="M -5.203125 -36.332031 C -6.195312 -36.988281 -7.203125 -37.113281 -8.152344 -36.617188 C -8.9375 -36.222656 -9.792969 -35.800781 -10.597656 -35.355469 C -11.03125 -35.445312 -11.507812 -35.4375 -11.984375 -35.191406 C -17.4375 -31.988281 -23.011719 -28.78125 -27.246094 -24.28125 C -27.269531 -24.230469 -27.339844 -24.207031 -27.363281 -24.160156 C -27.671875 -23.890625 -27.929688 -23.597656 -28.238281 -23.328125 C -28.378906 -23.28125 -28.546875 -23.179688 -28.636719 -22.988281 C -29.691406 -21.535156 -31.707031 -18.9375 -30.359375 -17.164062 C -29.503906 -16.101562 -27.898438 -15.984375 -26.6875 -16.53125 C -26.390625 -16.035156 -26.214844 -15.535156 -26.109375 -15.007812 C -24.285156 -14.609375 -22.433594 -14.136719 -20.628906 -13.6875 C -20.769531 -13.398438 -20.90625 -13.109375 -20.996094 -12.796875 C -21.691406 -11.347656 -19.554688 -9.609375 -18.039062 -10.546875 C -17.539062 -10.839844 -16.996094 -11.234375 -16.570312 -11.625 L -16.960938 -10.445312 C -16.511719 -10.882812 -16.0625 -11.320312 -15.664062 -11.78125 C -15.523438 -11.953125 -15.332031 -11.980469 -15.1875 -11.910156 C -15.140625 -12.007812 -15.09375 -12.105469 -15.050781 -12.199219 L -13.21875 -11.679688 C -10.765625 -10.980469 -8.3125 -10.277344 -5.859375 -9.574219 L -2.464844 -8.484375 C -1.355469 -8.070312 -0.242188 -7.417969 0.886719 -7.175781 C 1.417969 -6.917969 1.988281 -7.242188 2.074219 -7.671875 C 2.386719 -7.582031 2.675781 -7.5625 2.984375 -7.59375 C 3.941406 -7.847656 4.355469 -8.835938 4.125 -9.71875 C 3.96875 -10.386719 3.648438 -10.957031 3.207031 -11.523438 C 2.964844 -11.636719 2.675781 -11.777344 2.363281 -11.867188 C 0.0664062 -13.148438 -2.507812 -14.085938 -4.945312 -15.074219 C -7.210938 -16.042969 -9.523438 -16.914062 -11.8125 -17.714844 C -11.164062 -18.945312 -10.441406 -20.203125 -9.792969 -21.433594 C -9.242188 -21.46875 -8.621094 -21.527344 -8.046875 -21.609375 L -8 -21.585938 C -7.375 -21.640625 -6.777344 -21.652344 -6.132812 -21.640625 C -3.90625 -21.699219 -0.09375 -21.476562 1.414062 -21.40625 C 4.097656 -21.308594 6.832031 -21.183594 9.515625 -20.964844 C 9.703125 -21.113281 9.746094 -21.449219 9.671875 -21.664062 C 9.71875 -21.640625 9.742188 -21.6875 9.765625 -21.738281 C 10.167969 -22.078125 10.375 -22.511719 10.535156 -22.972656 C 11.265625 -23.628906 11.558594 -24.855469 10.566406 -25.507812 C 7.613281 -27.398438 3.761719 -27.167969 0.386719 -27.183594 C -2.175781 -27.164062 -4.710938 -26.953125 -7.265625 -26.578125 C -5.988281 -28.753906 -4.707031 -30.929688 -3.472656 -33.128906 C -3.007812 -33.855469 -3.386719 -35.164062 -4.257812 -35.703125 Z M -21.984375 -20.273438 L -22.824219 -20.5 C -19.871094 -24.1875 -15.941406 -27.054688 -11.601562 -29.546875 L -14.425781 -25.140625 C -15.875 -24.46875 -17.941406 -23.5 -17.71875 -21.613281 C -17.644531 -21.28125 -17.421875 -20.996094 -17.203125 -20.832031 C -17.367188 -20.613281 -17.507812 -20.324219 -17.671875 -20.105469 C -18.777344 -20.398438 -19.90625 -20.644531 -21.035156 -20.886719 C -21.492188 -21.046875 -21.726562 -20.566406 -21.597656 -20.207031 C -21.71875 -20.207031 -21.863281 -20.277344 -21.984375 -20.273438 Z M 1.382812 -13.289062 C 0.316406 -14.035156 0.0195312 -14.65625 -1.789062 -15.34375 C -4.800781 -16.488281 -7.8125 -17.636719 -10.84375 -18.496094 L -11.027344 -18.109375 C -6.792969 -16.792969 -2.714844 -15.015625 1.382812 -13.289062 Z M 1.382812 -13.289062 "/></g></g></g><g fill="#000000" fill-opacity="1"><g transform="translate(300.149421, 209.905715)"><g><path d="M 0.570312 -19.652344 C 4.539062 -20.449219 4.871094 -24.398438 0.015625 -24.34375 C -3.222656 -24.273438 -7.632812 -23.851562 -10.851562 -23.507812 C -12.386719 -26.640625 -17.238281 -26.589844 -18.167969 -22.597656 C -21.402344 -22.582031 -29.472656 -23.15625 -28.945312 -23.042969 C -27.214844 -22.636719 -25.363281 -22.320312 -23.558594 -22.066406 C -23.566406 -22.015625 -23.566406 -22.015625 -23.625 -21.96875 C -25.722656 -21.984375 -27.929688 -22.015625 -30.074219 -22.09375 C -31.796875 -22.121094 -32.984375 -21.125 -33.261719 -19.59375 C -34.160156 -19.261719 -34.917969 -18.269531 -34.964844 -17.359375 C -35.214844 -14.636719 -32.035156 -13.207031 -30.066406 -12.019531 C -26.921875 -10.269531 -23.558594 -9.03125 -20.128906 -7.894531 C -19.875 -1.457031 -14.074219 -0.8125 -12.84375 -4.121094 C -12.679688 -4.160156 -12.472656 -4.082031 -12.371094 -4.015625 C -12.324219 -4.441406 -12.320312 -4.980469 -12.320312 -5.464844 C -9.320312 -4.324219 -6.296875 -3.449219 -3.203125 -2.671875 C 1.71875 -1.425781 3.199219 -7.9375 -1.59375 -8.902344 L -3.953125 -9.488281 C -3.953125 -9.488281 -9.28125 -10.996094 -11.808594 -11.980469 L -11.757812 -12.457031 C -8.730469 -11.097656 -5.539062 -10.257812 -2.375 -9.636719 C -1.742188 -9.511719 -1.640625 -10.417969 -2.28125 -10.488281 C -5.496094 -11.117188 -8.570312 -12.050781 -11.671875 -13.203125 L -11.265625 -17.359375 C -9.300781 -17.570312 0.0859375 -18.679688 0.570312 -19.652344 Z M -18.609375 -13.8125 C -21.054688 -14.570312 -23.113281 -15.445312 -25.996094 -16.628906 C -23.492188 -16.886719 -19.84375 -16.753906 -18.488281 -16.816406 C -18.519531 -16.066406 -18.632812 -14.570312 -18.609375 -13.8125 Z M -18.609375 -13.8125 "/></g></g></g><g clip-path="url(#5d03de492f)"><path fill="#ff3131" d="M 171.023438 185.882812 C 188.488281 192.492188 206.15625 190.617188 191.996094 192.421875 C 172.515625 194.902344 175.777344 177.980469 175.96875 214.867188 C 176.027344 226.488281 177.058594 243.53125 197.015625 242.519531 C 212.359375 241.742188 217.375 204.65625 226.03125 185.910156 C 227.484375 182.761719 217.117188 175.765625 213.179688 173.410156 C 207.292969 169.886719 205.964844 166.820312 199.910156 164.371094 C 187.828125 159.480469 166.148438 156.691406 155.679688 158.03125 C 149.339844 158.839844 148.785156 170.550781 151.582031 176.144531 C 152.007812 177.003906 152.917969 177.320312 153.90625 177.527344 C 158.050781 178.402344 166.691406 184.246094 171.023438 185.882812 Z M 226.238281 166.824219 C 228.679688 162.847656 229.777344 163.183594 232.394531 157.507812 C 234.417969 153.6875 236.363281 152.542969 237.871094 147.875 C 238.695312 145.320312 238.992188 142.230469 240.480469 140.015625 L 241.070312 139.195312 C 241.101562 139.144531 241.148438 139.074219 241.175781 139.023438 C 243.136719 135.847656 246.230469 133.832031 250.335938 134.308594 C 251.644531 134.460938 252.964844 135.429688 253.855469 136.277344 C 255.667969 138.003906 258.148438 139.058594 257.28125 142.183594 C 256.761719 144.050781 255.417969 145.480469 254.179688 146.90625 C 251.613281 149.871094 247.140625 155.183594 244.40625 160.992188 C 231.796875 187.800781 216.382812 182.882812 226.238281 166.824219 Z M 173.023438 213.554688 C 171.789062 224.3125 176.8125 230.640625 178.96875 235.882812 C 181.203125 241.300781 179.449219 242.460938 174.394531 244.433594 C 160.539062 249.847656 148.371094 237.273438 140.488281 225.921875 C 135.164062 216.136719 141.230469 209.214844 130.71875 203.488281 C 121.570312 198.503906 126.558594 191.207031 131.066406 189.875 C 133.335938 189.207031 134.136719 190.257812 136.144531 191.175781 C 140.402344 193.125 145.253906 195.089844 152.132812 178.625 C 155.421875 177.109375 166.617188 185.445312 169.3125 189.046875 C 174.042969 195.363281 173.875 206.117188 173.023438 213.554688 Z M 216.84375 106.566406 C 219.910156 103.117188 223.4375 104.234375 226.167969 106.507812 C 228.710938 108.628906 226.917969 122.953125 226.5625 125.394531 C 226.246094 127.554688 225.382812 128.980469 223.46875 129.992188 C 223.773438 131.285156 224.203125 130.875 223.90625 132.390625 C 223.425781 134.828125 222.230469 140.230469 222.527344 142.210938 C 223.078125 145.90625 221.933594 148.902344 221.464844 152.242188 C 220.738281 154.136719 221.382812 154.867188 219.722656 156.710938 C 210.359375 163.964844 213.019531 172.234375 204.441406 161.265625 C 202.574219 158.875 204.957031 152.703125 205.867188 150.828125 C 206.5 149.515625 206.964844 149.59375 207.339844 147.734375 C 207.726562 145.8125 207.050781 145.675781 207.308594 143.746094 C 207.523438 142.125 209.492188 131.671875 210.339844 129.390625 C 210.898438 127.878906 211.1875 127.558594 211.226562 125.722656 C 211.296875 122.558594 214.148438 109.550781 216.84375 106.566406 Z M 190.902344 84.464844 C 193.628906 86.003906 197.214844 92.035156 196.714844 94.261719 C 196.058594 97.15625 196.738281 99.359375 196.332031 102.339844 C 195.796875 106.242188 197.222656 105.699219 195.179688 110.960938 C 194.695312 112.210938 194.519531 114.273438 194.242188 115.71875 C 193.785156 118.140625 193.179688 117.101562 193.277344 119.921875 C 193.300781 120.640625 193.167969 121.363281 192.972656 121.847656 C 190.6875 127.46875 196.820312 136.890625 189.617188 150.101562 C 191.328125 162.15625 176.234375 159.945312 176.234375 146.964844 L 176.875 139.347656 C 177.957031 132.328125 178.121094 131.941406 177.726562 123.691406 C 179.570312 109.308594 179.585938 113.085938 177.539062 99.535156 C 176.789062 94.585938 177.765625 86.464844 181.875 84.558594 C 184.695312 83.253906 188.109375 82.882812 190.902344 84.464844 Z M 130.269531 177.023438 C 135.511719 164.484375 114.828125 148.8125 109.542969 148.8125 C 108.507812 148.8125 104.25 150.125 103.476562 151.003906 C 100.328125 154.578125 106.71875 171.503906 109.25 174.589844 C 113.566406 179.855469 111.882812 176.671875 114.902344 180.328125 C 115.542969 181.066406 120.011719 194.730469 126.519531 190.417969 C 134.613281 186.113281 126.332031 182.785156 130.269531 177.023438 Z M 164.382812 152.429688 C 162.832031 155.585938 157.367188 158.355469 155.570312 155.335938 C 154.980469 154.339844 151.472656 135.171875 151.113281 133.292969 C 150.121094 128.050781 149.039062 130.183594 149.804688 122.445312 C 149.960938 120.882812 150.414062 116.101562 150.902344 115 C 152.710938 110.914062 150.9375 113.429688 150.40625 108.640625 C 150.144531 106.265625 150.582031 103.46875 151.0625 101.171875 C 151.542969 98.875 152.019531 96.867188 153.304688 94.910156 C 167.097656 74.96875 166.605469 117.640625 163.144531 121.832031 C 164.941406 121.988281 164.78125 151.09375 164.382812 152.429688 Z M 164.382812 152.429688 " fill-opacity="1" fill-rule="evenodd"/></g><g clip-path="url(#dbf4f6b396)"><path fill="#ffffff" d="M 166.984375 182.628906 C 171.988281 182.617188 176.429688 185.019531 179.21875 188.738281 C 181.984375 185.003906 186.417969 182.578125 191.421875 182.566406 C 214.628906 182.503906 207.480469 216.53125 179.316406 226.648438 C 151.101562 216.679688 143.773438 182.691406 166.984375 182.628906 " fill-opacity="1" fill-rule="evenodd"/></g><g clip-path="url(#24914907ce)"><path fill="#ffffff" d="M 179.234375 188.714844 C 182.003906 184.992188 186.425781 182.578125 191.421875 182.566406 C 214.628906 182.503906 207.480469 216.53125 179.316406 226.648438 C 179.289062 226.636719 179.261719 226.628906 179.234375 226.617188 C 179.234375 211.941406 179.234375 202.1875 179.234375 188.714844 " fill-opacity="1" fill-rule="evenodd"/></g><g clip-path="url(#e1f71e7828)"><g clip-path="url(#839e3cd7a6)"><path fill="#000000" d="M 66.921875 219.980469 L 75.542969 219.980469 L 75.542969 228.597656 L 66.921875 228.597656 Z M 66.921875 219.980469 " fill-opacity="1" fill-rule="nonzero"/></g></g><g clip-path="url(#bfd6e718a1)"><g clip-path="url(#d1b39a7bc4)"><path fill="#000000" d="M 280.40625 123.722656 L 289.027344 123.722656 L 289.027344 132.339844 L 280.40625 132.339844 Z M 280.40625 123.722656 " fill-opacity="1" fill-rule="nonzero"/></g></g></svg>